<svg xmlns="http://www.w3.org/2000/svg" viewBox="0 0 948.86 224.45"><defs><style>.cls-1,.cls-4{fill:#e93017;}.cls-2,.cls-3{fill:#4faa3a;}.cls-3,.cls-4{fill-rule:evenodd;}</style></defs><g id="Layer_2" data-name="Layer 2"><g id="Layer_1-2" data-name="Layer 1"><path class="cls-1" d="M111.39,41.58V0h-4.16a5.41,5.41,0,0,0-5.34,4.56l-2.72,17A5.43,5.43,0,0,1,94.87,26a85.69,85.69,0,0,0-10.74,2.87,5.42,5.42,0,0,1-5.94-1.71L67.35,13.81a5.42,5.42,0,0,0-6.91-1.27l-8.66,5a5.4,5.4,0,0,0-2.34,6.61l6.14,16.09a5.4,5.4,0,0,1-1.49,6,88.34,88.34,0,0,0-7.86,7.86,5.4,5.4,0,0,1-6,1.49L24.15,49.44a5.4,5.4,0,0,0-6.61,2.34l-5,8.66a5.42,5.42,0,0,0,1.27,6.91L27.16,78.19a5.43,5.43,0,0,1,1.7,5.94A85.69,85.69,0,0,0,26,94.87a5.42,5.42,0,0,1-4.45,4.3l-17,2.71A5.42,5.42,0,0,0,0,107.23v10a5.41,5.41,0,0,0,4.56,5.34l17,2.72A5.42,5.42,0,0,1,26,129.58a87.34,87.34,0,0,0,2.88,10.7,5.39,5.39,0,0,1-1.7,5.95L13.81,157.11a5.41,5.41,0,0,0-1.27,6.9l5,8.66A5.4,5.4,0,0,0,24.15,175l16.2-6.19a5.4,5.4,0,0,1,6,1.49,89.6,89.6,0,0,0,7.8,7.79,5.41,5.41,0,0,1,1.48,6l-6.18,16.2a5.41,5.41,0,0,0,2.34,6.62l8.66,5a5.41,5.41,0,0,0,6.91-1.28l10.87-13.38a5.41,5.41,0,0,1,6-1.7,87.53,87.53,0,0,0,10.71,2.89,5.38,5.38,0,0,1,4.28,4.44l2.73,17a5.41,5.41,0,0,0,5.34,4.55h4.16V182.87a70.71,70.71,0,0,1-64.32-43.25H57.39a4.55,4.55,0,0,0,4.55-4.55V89.39a4.56,4.56,0,0,0-4.55-4.56H47.07a70.71,70.71,0,0,1,64.32-43.25"/><path class="cls-2" d="M219.9,101.89l-17-2.73a5.4,5.4,0,0,1-4.44-4.28,87,87,0,0,0-2.89-10.71,5.41,5.41,0,0,1,1.7-6l13.38-10.87a5.41,5.41,0,0,0,1.28-6.91l-5-8.66a5.41,5.41,0,0,0-6.62-2.34l-16.2,6.19a5.43,5.43,0,0,1-6-1.49,89.6,89.6,0,0,0-7.79-7.8,5.4,5.4,0,0,1-1.49-6L175,24.15a5.4,5.4,0,0,0-2.35-6.61l-8.66-5a5.41,5.41,0,0,0-6.9,1.27L146.23,27.19a5.39,5.39,0,0,1-5.95,1.7A87.34,87.34,0,0,0,129.58,26a5.42,5.42,0,0,1-4.29-4.45l-2.72-17A5.41,5.41,0,0,0,117.23,0h-4.16V41.59a70.66,70.66,0,0,1,64.31,43.24H164a4.56,4.56,0,0,0-4.55,4.56v45.68a4.55,4.55,0,0,0,4.55,4.55h13.4a70.68,70.68,0,0,1-64.31,43.25v41.58h4.16a5.41,5.41,0,0,0,5.34-4.55l2.72-17a5.41,5.41,0,0,1,4.29-4.45,85.85,85.85,0,0,0,10.75-2.87,5.42,5.42,0,0,1,5.94,1.71l10.84,13.34a5.4,5.4,0,0,0,6.9,1.28l8.66-5A5.41,5.41,0,0,0,175,200.3l-6.15-16.09a5.42,5.42,0,0,1,1.49-6,88.34,88.34,0,0,0,7.86-7.86,5.42,5.42,0,0,1,6-1.49L200.3,175a5.41,5.41,0,0,0,6.62-2.35l5-8.66a5.4,5.4,0,0,0-1.28-6.9L197.3,146.27a5.42,5.42,0,0,1-1.71-5.94,85.85,85.85,0,0,0,2.87-10.75,5.41,5.41,0,0,1,4.45-4.29l17-2.72a5.41,5.41,0,0,0,4.55-5.34v-10a5.41,5.41,0,0,0-4.55-5.34"/><path class="cls-3" d="M156.83,93.27l.47,38.37a5.89,5.89,0,0,1-3.17,5.3l-1.26.66a4.32,4.32,0,0,1-5.64-1.51L143,131.72l-9.47-11.78a23.63,23.63,0,0,0-3.11-2.8l-10.66-8.06-3-2.78a13.15,13.15,0,0,1-2.6-3.46l-2.1-4.11s-2.19-4.14-5.89-2.56L93.1,103.25s-10.32,5-14.33-2.07c0,0-2.48-3.27,4.11-9.31,0,0,9.7-11.54,15.91-12.26,0,0,8.51-2.2,10.72-3.62,0,0,4.35-2.29,13.09,1.59,0,0,17.72,9.64,24,10.92l7.66.58c2.88.14,2.55,2.43,2.57,4.19"/><path class="cls-4" d="M63.93,94.46v34.29A11.51,11.51,0,0,0,69,138.3c3.39,2.29,7.32,4.95,7.75,5.32.65.55,10.22,7.95,13.57,10.54a14.92,14.92,0,0,0,2.46,1.54l10.89,5.44a3.65,3.65,0,0,0,3.69-6.28l-7.1-4.83a.09.09,0,0,1,.09-.16l16,7.85a4.53,4.53,0,0,0,4.32-8l-8.56-5.07s0,0,0,0,.05,0,.05,0l17.55,8.47a4.43,4.43,0,0,0,4.37-7.69l-10.18-7.31a0,0,0,0,1,0,0s0,0,0,0l14.61,8.12a5.21,5.21,0,0,0,6.34-8l-17.46-21s-7-5.68-10-6.81c0,0-4.82-1.89-8.06-11.86,0,0-.36-1.18-2.39-.41l-10.78,5.22s-10.11,7.61-16.6,1.26c0,0-6.27-5.09-.51-11.61l11.7-11.23a.88.88,0,0,0-.91-1.46L68.33,88.17a6.69,6.69,0,0,0-4.4,6.29"/><rect x="245.6" y="33.73" width="34.63" height="124.31"/><path d="M301,62h33.92v13.5A59.63,59.63,0,0,1,340,69.6a32.77,32.77,0,0,1,6.32-5,34.94,34.94,0,0,1,7.72-3.46,30.57,30.57,0,0,1,9.29-1.34q15.54,0,24.2,9.42t8.66,25.92V158H362.28V106q0-8-3.69-12.08A12.35,12.35,0,0,0,349,89.85a13.41,13.41,0,0,0-10.08,4.08Q334.93,98,334.93,106v52H301Z"/><path d="M452.49,160.17a39.27,39.27,0,0,1-16.25-3.46,40.09,40.09,0,0,1-13.5-9.86,48.34,48.34,0,0,1-9.23-15.62,58.85,58.85,0,0,1-3.46-20.78v-.36a61.76,61.76,0,0,1,3.36-21,47.24,47.24,0,0,1,9.21-15.81,40.59,40.59,0,0,1,13.47-9.94,38.49,38.49,0,0,1,16.12-3.47q10.8,0,17.71,4.18a48.78,48.78,0,0,1,11.7,9.67V28.4h33.92V158H481.62l.17-12.79a52.09,52.09,0,0,1-11.72,10.48q-6.75,4.44-17.58,4.44m10.21-28.23a18.33,18.33,0,0,0,7.6-1.6,18.73,18.73,0,0,0,6.19-4.53,21.39,21.39,0,0,0,4.15-6.93,24.58,24.58,0,0,0,1.51-8.79v-.35a24,24,0,0,0-1.51-8.71,21.57,21.57,0,0,0-4.15-6.83,18.45,18.45,0,0,0-6.19-4.53,18.85,18.85,0,0,0-15.2,0,19.19,19.19,0,0,0-6.19,4.44,21.46,21.46,0,0,0-4.24,6.84,23.54,23.54,0,0,0-1.59,8.79v.35a23.54,23.54,0,0,0,1.59,8.79,22.71,22.71,0,0,0,4.24,6.93,18.73,18.73,0,0,0,6.19,4.53,18.33,18.33,0,0,0,7.6,1.6"/><path d="M581.24,160.35a57.27,57.27,0,0,1-20.77-3.64,49,49,0,0,1-16.25-10.12,45,45,0,0,1-10.66-15.72,52.87,52.87,0,0,1-3.82-20.42v-.36a53.7,53.7,0,0,1,3.55-19.62,48.56,48.56,0,0,1,10-16,47.18,47.18,0,0,1,15.36-10.74,48,48,0,0,1,19.53-3.91q12.43,0,21.58,4.27a42.54,42.54,0,0,1,15.1,11.45,48.32,48.32,0,0,1,8.88,16.69,68.21,68.21,0,0,1,2.93,20.16v3.37a35.36,35.36,0,0,1-.18,3.56H562.24q1.95,8,7.37,11.9a22.35,22.35,0,0,0,13.41,3.9,26.45,26.45,0,0,0,11.1-2.31,35.62,35.62,0,0,0,10.21-7.45L623,140.81A51.76,51.76,0,0,1,605.84,155q-10.22,5.32-24.6,5.33M595.1,102.1q-.9-8-5.33-12.7a15,15,0,0,0-11.37-4.7,14.19,14.19,0,0,0-11,4.7q-4.26,4.71-5.68,12.7Z"/><path d="M688.69,160.35a57.28,57.28,0,0,1-20.78-3.64,49.06,49.06,0,0,1-16.25-10.12A45.09,45.09,0,0,1,641,130.87a53.05,53.05,0,0,1-3.81-20.42v-.36a53.7,53.7,0,0,1,3.55-19.62,48.37,48.37,0,0,1,10-16,47.18,47.18,0,0,1,15.36-10.74,48.06,48.06,0,0,1,19.54-3.91q12.42,0,21.57,4.27a42.54,42.54,0,0,1,15.1,11.45,48,48,0,0,1,8.88,16.69,68.21,68.21,0,0,1,2.93,20.16v3.37a35.36,35.36,0,0,1-.18,3.56H669.68q2,8,7.38,11.9a22.34,22.34,0,0,0,13.4,3.9,26.39,26.39,0,0,0,11.1-2.31,35.49,35.49,0,0,0,10.21-7.45l18.65,15.44A51.66,51.66,0,0,1,713.28,155q-10.21,5.32-24.59,5.33m13.85-58.25q-.88-8-5.33-12.7a15,15,0,0,0-11.37-4.7,14.17,14.17,0,0,0-11,4.7q-4.27,4.71-5.69,12.7Z"/><path d="M777,187a57.25,57.25,0,0,1-16.61-2.29,74.9,74.9,0,0,1-14.29-6l10.48-23.5a40.46,40.46,0,0,0,8,3.82,21.33,21.33,0,0,0,6.75,1.33,11.07,11.07,0,0,0,4.35-.8,8.34,8.34,0,0,0,3.46-3.12L741.43,62h35.34L796,119.86,814.06,62H848.7l-35.17,93.77A105.91,105.91,0,0,1,807,170a36.86,36.86,0,0,1-7.64,9.68,27.45,27.45,0,0,1-9.76,5.5A41.2,41.2,0,0,1,777,187"/><path d="M887.23,160.17a40.24,40.24,0,0,1-12.78-1.95,30.21,30.21,0,0,1-10.22-5.68,26.1,26.1,0,0,1-6.83-9.24,30.76,30.76,0,0,1-2.49-12.79v-.35A29.88,29.88,0,0,1,857.66,117a25.88,25.88,0,0,1,7.64-9.42,35.07,35.07,0,0,1,11.81-5.68,57,57,0,0,1,15.45-2,69.5,69.5,0,0,1,12.88,1.15,72.67,72.67,0,0,1,10.21,2.58v-1.6q0-7.45-4.71-11.54t-14.47-4.09a62.67,62.67,0,0,0-13.85,1.42A90.09,90.09,0,0,0,870,91.8L863.08,68a105.25,105.25,0,0,1,17.31-5.41A100.13,100.13,0,0,1,902,60.54q13,0,21.93,3a37.24,37.24,0,0,1,14.66,8.7,30.52,30.52,0,0,1,7.9,12.88,58.45,58.45,0,0,1,2.4,17.67V158H915.47V148.1a35.84,35.84,0,0,1-28.24,12.07M899.31,139q7.46,0,12.08-4.26T916,123.23v-4.44a30.86,30.86,0,0,0-6-1.77,35.93,35.93,0,0,0-7.19-.71q-7.46,0-11.45,3.28a10.61,10.61,0,0,0-4,8.62v.35a9.42,9.42,0,0,0,3.37,7.73,13.08,13.08,0,0,0,8.53,2.75"/><path d="M265,196.26l9.58-23.47a18.46,18.46,0,0,1,1.09-2.42,6.51,6.51,0,0,1,1.16-1.53,3.42,3.42,0,0,1,1.34-.81,5.51,5.51,0,0,1,1.64-.23,4.76,4.76,0,0,1,1.72.31,3.75,3.75,0,0,1,1.44,1,4.74,4.74,0,0,1,1,1.71,7.89,7.89,0,0,1,.36,2.54v28.3a3.44,3.44,0,0,1-.22,1.3,2.69,2.69,0,0,1-.61.92,2.46,2.46,0,0,1-.86.56,2.59,2.59,0,0,1-1,.19,2.45,2.45,0,0,1-1-.19,2.58,2.58,0,0,1-.84-.56,2.82,2.82,0,0,1-.6-.92,3.43,3.43,0,0,1-.23-1.3V174.4l-10.48,26a4.44,4.44,0,0,1-.63,1.25,4,4,0,0,1-.88.91,3.76,3.76,0,0,1-1.06.57,3.61,3.61,0,0,1-1.12.19,3.56,3.56,0,0,1-2.07-.7,4.22,4.22,0,0,1-1.48-2.22l-10.45-25.87v27.07a3.43,3.43,0,0,1-.23,1.3,2.82,2.82,0,0,1-.6.92,2.66,2.66,0,0,1-.86.56,2.55,2.55,0,0,1-1.93,0,2.52,2.52,0,0,1-.85-.56,3,3,0,0,1-.59-.92,3.44,3.44,0,0,1-.22-1.3v-28.3a7.89,7.89,0,0,1,.36-2.54,4.76,4.76,0,0,1,1-1.71,3.93,3.93,0,0,1,1.47-1,4.85,4.85,0,0,1,1.75-.31,5.37,5.37,0,0,1,1.66.24,4,4,0,0,1,1.36.82,6.67,6.67,0,0,1,1.17,1.55,18,18,0,0,1,1.08,2.43l9.42,23.42Z"/><path d="M321.94,201a3.31,3.31,0,0,1,.16,1,2.79,2.79,0,0,1-.27,1.24,3,3,0,0,1-.72.93,3.45,3.45,0,0,1-1,.59,3.29,3.29,0,0,1-1.16.2,2.85,2.85,0,0,1-1.64-.52,2.61,2.61,0,0,1-1-1.65L313.8,196H298.63l-2.43,6.84a2.67,2.67,0,0,1-1,1.66,2.79,2.79,0,0,1-1.6.51,3.26,3.26,0,0,1-1.14-.2,3.34,3.34,0,0,1-1-.59,3.07,3.07,0,0,1-.71-.92,2.65,2.65,0,0,1-.27-1.2,4.84,4.84,0,0,1,0-.53,2.42,2.42,0,0,1,.16-.55l9.94-26.87a19,19,0,0,1,1.18-2.93,6.68,6.68,0,0,1,1.26-1.79,3.71,3.71,0,0,1,1.47-.91,5.71,5.71,0,0,1,1.76-.26,5.62,5.62,0,0,1,1.8.27,3.85,3.85,0,0,1,1.48.93,7.17,7.17,0,0,1,1.26,1.81,18.94,18.94,0,0,1,1.17,2.88Zm-15.76-27.51-6.25,18.19H312.5l-6.22-18.19Z"/><path d="M337.61,201.75a3.43,3.43,0,0,1-.27,1.42,3,3,0,0,1-.72,1,3.2,3.2,0,0,1-1,.62,3.38,3.38,0,0,1-2.29,0,3,3,0,0,1-1-.61,2.65,2.65,0,0,1-.7-1,3.51,3.51,0,0,1-.26-1.43v-30.3a3.56,3.56,0,0,1,.27-1.44,3,3,0,0,1,.71-1,3.13,3.13,0,0,1,1-.6,3.25,3.25,0,0,1,1.15-.21,3.21,3.21,0,0,1,1.15.21,3.13,3.13,0,0,1,1,.6,3,3,0,0,1,.71,1,3.56,3.56,0,0,1,.27,1.44v13l12.33-14.72a3,3,0,0,1,1.1-1.1,2.75,2.75,0,0,1,1.29-.33,3,3,0,0,1,1.1.21,3.28,3.28,0,0,1,.95.61,3,3,0,0,1,.67.91,2.5,2.5,0,0,1,.26,1.13,3.12,3.12,0,0,1-.57,1.72L343.81,185,356,200a3.28,3.28,0,0,1,.47,1,3.67,3.67,0,0,1,.12.91,2.91,2.91,0,0,1-.27,1.24,3.4,3.4,0,0,1-.72,1,3.56,3.56,0,0,1-1,.66,3.06,3.06,0,0,1-1.17.24,2.84,2.84,0,0,1-1.34-.34,2.88,2.88,0,0,1-1.12-1.17l-13.3-16.89Z"/><path d="M370.2,205a2.64,2.64,0,0,1-1.17-.27,3.45,3.45,0,0,1-1-.72,3.68,3.68,0,0,1-.69-1,3.21,3.21,0,0,1-.26-1.27V171.5a3.59,3.59,0,0,1,.23-1.25,3.27,3.27,0,0,1,.64-1.06,3.14,3.14,0,0,1,1-.73,2.73,2.73,0,0,1,1.18-.27h17.22a2.34,2.34,0,0,1,1,.22,2.21,2.21,0,0,1,.73.58,2.33,2.33,0,0,1,.44.8,3,3,0,0,1,.15.94,3,3,0,0,1-.15.92,2.24,2.24,0,0,1-.44.82,2.21,2.21,0,0,1-.73.58,2.34,2.34,0,0,1-1,.21H373.28v10.37h13.15a2.28,2.28,0,0,1,1,.22,2.14,2.14,0,0,1,.75.57,2.45,2.45,0,0,1,.44.81,3.22,3.22,0,0,1,.14.93,2.91,2.91,0,0,1-.15.92,2.83,2.83,0,0,1-.45.82,2.25,2.25,0,0,1-.74.58,2.34,2.34,0,0,1-1,.22H373.28v11.23h14.57a2.2,2.2,0,0,1,1,.22,2.33,2.33,0,0,1,.74.57,2.43,2.43,0,0,1,.43.81,2.91,2.91,0,0,1,.14.93,3,3,0,0,1-.14.93,2.34,2.34,0,0,1-.43.81,2.1,2.1,0,0,1-.74.58,2.2,2.2,0,0,1-1,.22Z"/><path d="M417.07,186.62a27.17,27.17,0,0,1,1.07-7.84,17.34,17.34,0,0,1,3.13-6.08,14,14,0,0,1,5.13-3.93,18.5,18.5,0,0,1,14.07,0,14,14,0,0,1,5.12,3.93,17.17,17.17,0,0,1,3.13,6.08,29.76,29.76,0,0,1,0,15.67,17.21,17.21,0,0,1-3.13,6.07,14,14,0,0,1-5.12,3.93,18.5,18.5,0,0,1-14.07,0,14,14,0,0,1-5.13-3.93,17.38,17.38,0,0,1-3.13-6.07,27,27,0,0,1-1.07-7.83m6.7,0a26.46,26.46,0,0,0,.56,5.67,13.69,13.69,0,0,0,1.73,4.48,8.55,8.55,0,0,0,3,2.94,9.4,9.4,0,0,0,8.71,0,8.6,8.6,0,0,0,3-2.94,13.93,13.93,0,0,0,1.75-4.48,26.44,26.44,0,0,0,.57-5.67,27,27,0,0,0-.56-5.64,13.84,13.84,0,0,0-1.74-4.49,8.81,8.81,0,0,0-3-3,9.36,9.36,0,0,0-8.73,0,8.72,8.72,0,0,0-3,3,13.83,13.83,0,0,0-1.72,4.49,26.3,26.3,0,0,0-.56,5.64"/><path d="M459.81,172.29a5.15,5.15,0,0,1,.27-1.73,4.12,4.12,0,0,1,.75-1.28,3.17,3.17,0,0,1,1.08-.79,3.11,3.11,0,0,1,1.29-.27,3.6,3.6,0,0,1,1.78.49,5,5,0,0,1,1.63,1.48L483.14,196V171.11a3.11,3.11,0,0,1,.24-1.26,2.51,2.51,0,0,1,.63-.91,2.66,2.66,0,0,1,.9-.55,2.81,2.81,0,0,1,1-.2,3,3,0,0,1,1,.19,2.48,2.48,0,0,1,.89.54,2.83,2.83,0,0,1,.63.93,3.29,3.29,0,0,1,.23,1.26v29.82a4.91,4.91,0,0,1-.28,1.73,3.75,3.75,0,0,1-.76,1.26,3.21,3.21,0,0,1-1.1.8,3.12,3.12,0,0,1-1.31.28,3.75,3.75,0,0,1-1.76-.47,5.11,5.11,0,0,1-1.65-1.5L465.4,177.38v24.73a2.89,2.89,0,0,1-.89,2.16,2.46,2.46,0,0,1-.9.55,3,3,0,0,1-2.05,0,2.58,2.58,0,0,1-.88-.54,2.76,2.76,0,0,1-.63-.89,3.14,3.14,0,0,1-.24-1.28Z"/><path d="M518.61,171.45a3.64,3.64,0,0,1,.27-1.45,3,3,0,0,1,.72-1,3.11,3.11,0,0,1,1-.61,3.3,3.3,0,0,1,1.16-.21,3.35,3.35,0,0,1,1.16.21,3,3,0,0,1,1,.61,3,3,0,0,1,.73,1,3.64,3.64,0,0,1,.27,1.45v30.22a3.56,3.56,0,0,1-.27,1.44,3.06,3.06,0,0,1-.73,1,2.82,2.82,0,0,1-1,.61,3.34,3.34,0,0,1-2.33,0,2.87,2.87,0,0,1-1-.61,3.16,3.16,0,0,1-.71-1,3.56,3.56,0,0,1-.27-1.44Z"/><path d="M536.72,172.29a5.15,5.15,0,0,1,.27-1.73,3.76,3.76,0,0,1,.75-1.28,3.11,3.11,0,0,1,2.36-1.06,3.63,3.63,0,0,1,1.79.49,5.09,5.09,0,0,1,1.62,1.48L560.05,196V171.11a3.29,3.29,0,0,1,.23-1.26,2.64,2.64,0,0,1,.63-.91,2.76,2.76,0,0,1,.9-.55,2.86,2.86,0,0,1,1-.2,3,3,0,0,1,1,.19,2.44,2.44,0,0,1,.88.54,2.83,2.83,0,0,1,.63.93,3.11,3.11,0,0,1,.24,1.26v29.82a4.9,4.9,0,0,1-.29,1.73,3.75,3.75,0,0,1-.76,1.26,3.27,3.27,0,0,1-1.09.8,3.16,3.16,0,0,1-1.32.28,3.78,3.78,0,0,1-1.76-.47,5.09,5.09,0,0,1-1.64-1.5L542.3,177.38v24.73a2.88,2.88,0,0,1-.25,1.25,3,3,0,0,1-.63.91,2.42,2.42,0,0,1-.91.55,3,3,0,0,1-1,.18,3,3,0,0,1-1-.18,2.63,2.63,0,0,1-.89-.54,2.59,2.59,0,0,1-.62-.89,3.14,3.14,0,0,1-.24-1.28Z"/><path d="M580,205a3.06,3.06,0,0,1-2.22-1,3.61,3.61,0,0,1-.68-1.07,3.45,3.45,0,0,1-.25-1.29V171.55a3.59,3.59,0,0,1,.25-1.31,3.33,3.33,0,0,1,.68-1.06,3.16,3.16,0,0,1,1-.72,3,3,0,0,1,1.22-.27h8.42a23.29,23.29,0,0,1,8,1.25,14.54,14.54,0,0,1,5.66,3.61,14.74,14.74,0,0,1,3.38,5.82,25.72,25.72,0,0,1,1.11,7.88,23.24,23.24,0,0,1-1.22,7.83,15.26,15.26,0,0,1-3.51,5.72,14.71,14.71,0,0,1-5.63,3.51,22.49,22.49,0,0,1-7.55,1.19Zm3.15-4.68h5.34a13.23,13.23,0,0,0,5.24-.94,8.69,8.69,0,0,0,3.54-2.7,11.47,11.47,0,0,0,2-4.3,24,24,0,0,0,.63-5.76,20.63,20.63,0,0,0-.81-6.14,10.89,10.89,0,0,0-2.36-4.27,9.46,9.46,0,0,0-3.86-2.5,15.74,15.74,0,0,0-5.25-.8h-4.47Z"/><path d="M620,205a2.64,2.64,0,0,1-1.17-.27,3.31,3.31,0,0,1-1-.72,3.68,3.68,0,0,1-.69-1,3.21,3.21,0,0,1-.26-1.27V171.5a3.59,3.59,0,0,1,.23-1.25,3.27,3.27,0,0,1,.64-1.06,3.22,3.22,0,0,1,.95-.73,2.8,2.8,0,0,1,1.19-.27h17.22a2.34,2.34,0,0,1,1,.22,2.21,2.21,0,0,1,.73.58,2.33,2.33,0,0,1,.44.8,3,3,0,0,1,0,1.86,2.24,2.24,0,0,1-.44.82,2.21,2.21,0,0,1-.73.58,2.34,2.34,0,0,1-1,.21H623v10.37h13.15a2.35,2.35,0,0,1,1.05.22,2.1,2.1,0,0,1,.74.57,2.45,2.45,0,0,1,.44.81,3.22,3.22,0,0,1,.14.93,2.66,2.66,0,0,1-.16.92,2.43,2.43,0,0,1-.45.82,2.21,2.21,0,0,1-.73.58,2.34,2.34,0,0,1-1,.22H623v11.23H637.6a2.2,2.2,0,0,1,1,.22,2.33,2.33,0,0,1,.74.57,2.43,2.43,0,0,1,.43.81,2.91,2.91,0,0,1,.14.93,3,3,0,0,1-.14.93,2.34,2.34,0,0,1-.43.81,2.1,2.1,0,0,1-.74.58,2.2,2.2,0,0,1-1,.22Z"/><path d="M653.4,205a2.68,2.68,0,0,1-1.18-.27,3.31,3.31,0,0,1-1-.72,3.46,3.46,0,0,1-.68-1,3,3,0,0,1-.27-1.27V171.5a3.59,3.59,0,0,1,.23-1.25,3.27,3.27,0,0,1,.64-1.06,3.14,3.14,0,0,1,1-.73,2.73,2.73,0,0,1,1.18-.27h17.22a2.34,2.34,0,0,1,1,.22,2.21,2.21,0,0,1,.73.58,2.33,2.33,0,0,1,.44.8,3,3,0,0,1,.15.94,3,3,0,0,1-.15.92,2.24,2.24,0,0,1-.44.82,2.21,2.21,0,0,1-.73.58,2.34,2.34,0,0,1-1,.21h-14v10.37h13.15a2.32,2.32,0,0,1,1,.22,2.1,2.1,0,0,1,.74.57,2.45,2.45,0,0,1,.44.81,3.22,3.22,0,0,1,.14.93,2.91,2.91,0,0,1-.15.92,2.61,2.61,0,0,1-.45.82,2.31,2.31,0,0,1-.73.58,2.41,2.41,0,0,1-1,.22H656.47v11.23h14.58a2.19,2.19,0,0,1,1,.22,2.22,2.22,0,0,1,.74.57,2.65,2.65,0,0,1,.44.81,3.22,3.22,0,0,1,.14.93,3.33,3.33,0,0,1-.14.93,2.54,2.54,0,0,1-.44.81,2,2,0,0,1-.74.58,2.19,2.19,0,0,1-1,.22Z"/><path d="M698.48,190v11.7a3.59,3.59,0,0,1-.27,1.44,3.09,3.09,0,0,1-.73,1.05,3,3,0,0,1-1,.63,3.46,3.46,0,0,1-1.18.21,3.35,3.35,0,0,1-1.16-.21,3,3,0,0,1-1.73-1.68,3.43,3.43,0,0,1-.28-1.44V190.13l-10.26-17.66a2.73,2.73,0,0,1-.27-.69c0-.22-.07-.44-.09-.64a2.29,2.29,0,0,1,.29-1.15,2.67,2.67,0,0,1,.75-.92,3.77,3.77,0,0,1,1.07-.61,3.53,3.53,0,0,1,1.2-.21,3,3,0,0,1,1.52.42,2.82,2.82,0,0,1,1.11,1.37l8.16,15.23h.1l8.23-15.36a2.56,2.56,0,0,1,1-1.28,2.82,2.82,0,0,1,1.42-.38,3.19,3.19,0,0,1,1.06.18,3,3,0,0,1,.93.51,2.62,2.62,0,0,1,.65.79,2.21,2.21,0,0,1,.25,1,2.84,2.84,0,0,1-.08.61,2.23,2.23,0,0,1-.25.66Z"/><path d="M742.52,201a3.31,3.31,0,0,1,.16,1,2.79,2.79,0,0,1-.27,1.24,3,3,0,0,1-.72.93,3.45,3.45,0,0,1-1,.59,3.26,3.26,0,0,1-1.16.2,2.85,2.85,0,0,1-1.64-.52,2.65,2.65,0,0,1-1-1.65L734.38,196H719.22l-2.44,6.84a2.67,2.67,0,0,1-1,1.66,2.79,2.79,0,0,1-1.6.51,3.17,3.17,0,0,1-1.13-.2,3.27,3.27,0,0,1-1-.59,3.07,3.07,0,0,1-.71-.92,2.65,2.65,0,0,1-.27-1.2,3.23,3.23,0,0,1,0-.53,2,2,0,0,1,.15-.55l9.93-26.87a20,20,0,0,1,1.19-2.93,6.68,6.68,0,0,1,1.26-1.79,3.71,3.71,0,0,1,1.47-.91,5.75,5.75,0,0,1,1.76-.26,5.62,5.62,0,0,1,1.8.27,3.85,3.85,0,0,1,1.48.93,7.44,7.44,0,0,1,1.27,1.81,20.12,20.12,0,0,1,1.16,2.88Zm-15.76-27.51-6.24,18.19h12.56l-6.23-18.19Z"/></g></g></svg>